<svg width="15" height="18" viewBox="0 0 15 18" fill="none" xmlns="http://www.w3.org/2000/svg">
<mask id="path-1-inside-1_13_18" fill="white">
<path fill-rule="evenodd" clip-rule="evenodd" d="M11.0445 0.271447C7.88031 1.14837 5.55748 4.04926 5.55748 7.49267C5.55748 11.6308 8.91206 14.9853 13.0501 14.9853C13.7246 14.9853 14.3783 14.8962 15 14.7291C13.4082 16.2386 11.2321 17.1686 8.83242 17.1686C3.95441 17.1686 0 13.3253 0 8.58432C0 3.84333 3.95441 0 8.83242 0C9.59632 0 10.3376 0.0942533 11.0445 0.271447Z"/>
</mask>
<path fill-rule="evenodd" clip-rule="evenodd" d="M11.0445 0.271447C7.88031 1.14837 5.55748 4.04926 5.55748 7.49267C5.55748 11.6308 8.91206 14.9853 13.0501 14.9853C13.7246 14.9853 14.3783 14.8962 15 14.7291C13.4082 16.2386 11.2321 17.1686 8.83242 17.1686C3.95441 17.1686 0 13.3253 0 8.58432C0 3.84333 3.95441 0 8.83242 0C9.59632 0 10.3376 0.0942533 11.0445 0.271447Z" fill="white" fill-opacity="0.5"/>
<path d="M11.0445 0.271447L11.3116 1.23512L14.964 0.222903L11.2877 -0.698549L11.0445 0.271447ZM15 14.7291L15.6881 15.4547L14.7404 13.7634L15 14.7291ZM6.55748 7.49267C6.55748 4.51026 8.56923 1.99514 11.3116 1.23512L10.7775 -0.69223C7.19139 0.301604 4.55748 3.58826 4.55748 7.49267H6.55748ZM13.0501 13.9853C9.46434 13.9853 6.55748 11.0785 6.55748 7.49267H4.55748C4.55748 12.183 8.35978 15.9853 13.0501 15.9853V13.9853ZM14.7404 13.7634C14.2026 13.9079 13.6362 13.9853 13.0501 13.9853V15.9853C13.8131 15.9853 14.554 15.8845 15.2596 15.6948L14.7404 13.7634ZM14.3119 14.0035C12.9013 15.3411 10.9698 16.1686 8.83242 16.1686V18.1686C11.4944 18.1686 13.9151 17.136 15.6881 15.4547L14.3119 14.0035ZM8.83242 16.1686C4.47964 16.1686 1 12.7464 1 8.58432H-1C-1 13.9043 3.42917 18.1686 8.83242 18.1686V16.1686ZM1 8.58432C1 4.42228 4.47964 1 8.83242 1V-1C3.42917 -1 -1 3.26438 -1 8.58432H1ZM8.83242 1C9.51381 1 10.1734 1.08404 10.8014 1.24144L11.2877 -0.698549C10.5017 -0.895537 9.67883 -1 8.83242 -1V1Z" fill="black" mask="url(#path-1-inside-1_13_18)"/>
</svg>
