<svg width="24" height="24" viewBox="0 0 24 24" fill="none" xmlns="http://www.w3.org/2000/svg">
<path d="M19 11.5C19 15.366 15.866 18.5 12 18.5C8.13401 18.5 5 15.366 5 11.5C5 7.63401 8.13401 4.5 12 4.5C15.866 4.5 19 7.63401 19 11.5Z" stroke="white"/>
<path d="M11.9998 1.06311L12.8988 2.75H11.1008L11.9998 1.06311ZM12.9705 20.5L11.9998 22.7417L11.0291 20.5H12.9705ZM21 11.309L22.8123 12.2151L21 12.9917V11.309ZM2.99996 12.941L1.11802 12L2.99996 11.059V12.941ZM5.38822 5.03254L4.17436 6.3706L3.24732 4.49731L5.38822 5.03254ZM20.6451 4.29101L19.8174 6.36027L18.4379 4.98076L20.6451 4.29101ZM19.3547 17.6827L20.3336 19.7591L18.1188 19.2054L19.3547 17.6827ZM4.85243 17.6818L6.11029 19.207L3.89178 19.7617L4.85243 17.6818Z" fill="black" stroke="white"/>
</svg>
